<?xml version="1.0" encoding="iso-8859-1"?>
<!-- Uploaded to: SVG Repo, www.svgrepo.com, Generator: SVG Repo Mixer Tools -->
<svg height="800px" width="800px" version="1.1" id="Layer_1" xmlns="http://www.w3.org/2000/svg" xmlns:xlink="http://www.w3.org/1999/xlink" 
	 viewBox="0 0 512.001 512.001" xml:space="preserve">
<path style="fill:#9BF57D;" d="M110.631,478.33V170.489L25.12,144.835l8.197-70.03C38.414,36.571,71.03,8.017,109.602,8.017h292.798
	c38.573,0,71.187,28.554,76.285,66.789l8.197,70.03l-85.511,25.653V478.33H110.631z"/>
<circle style="fill:#B9F37F;" cx="256.001" cy="281.653" r="92.994"/>
<g>
	<path style="fill:#7DC86E;" d="M401.37,503.983H110.631c-4.722,0-8.551-3.829-8.551-8.551V478.33c0-4.722,3.829-8.551,8.551-8.551
		H401.37c4.722,0,8.551,3.829,8.551,8.551v17.102C409.921,500.155,406.092,503.983,401.37,503.983z"/>
	<path style="fill:#7DC86E;" d="M27.37,139.23l83.261,22.708v34.205l-87.762-23.935c-3.72-1.014-6.301-4.394-6.301-8.25V147.48
		C16.568,141.841,21.93,137.746,27.37,139.23z"/>
	<path style="fill:#7DC86E;" d="M484.632,139.23l-83.261,22.708v34.205l87.762-23.935c3.72-1.014,6.301-4.394,6.301-8.25V147.48
		C495.433,141.841,490.071,137.746,484.632,139.23z"/>
</g>
<path style="fill:#8CDE75;" d="M256.001,93.528L256.001,93.528c-47.227,0-85.511-38.285-85.511-85.511l0,0h171.023l0,0
	C341.512,55.244,303.227,93.528,256.001,93.528z"/>
<path style="fill:#7DC86E;" d="M332.961,8.017c0,42.503-34.456,76.96-76.96,76.96s-76.96-34.457-76.96-76.96h-34.205
	c0,61.395,49.771,111.165,111.165,111.165S367.165,69.411,367.165,8.017H332.961z"/>
<path d="M330.932,263.375c1.367,5.787,2.06,11.767,2.06,17.775c0,26.312-13.107,49.879-33.84,63.832l0.964-1.351
	c2.571-3.605,1.733-8.611-1.872-11.182c-3.604-2.571-8.611-1.733-11.182,1.872l-17.91,25.113c-1.604,2.25-1.938,5.169-0.88,7.723
	c1.057,2.554,3.356,4.382,6.082,4.839l30.421,5.095c0.448,0.075,0.894,0.111,1.334,0.111c3.845,0,7.241-2.775,7.897-6.693
	c0.731-4.366-2.216-8.5-6.582-9.231l-3.306-0.554c9.303-5.631,17.644-12.873,24.51-21.439c13.154-16.413,20.398-37.06,20.398-58.134
	c0-7.247-0.838-14.469-2.489-21.461c-1.018-4.309-5.337-6.975-9.645-5.959C332.582,254.748,329.915,259.067,330.932,263.375z"/>
<path d="M184.051,235.156c1.467,1.146,3.206,1.702,4.932,1.702c2.383,0,4.741-1.057,6.321-3.079
	c14.713-18.823,36.837-29.619,60.696-29.619c16.52,0,32.205,5.179,45.177,14.61l-1.306-0.376c-4.256-1.224-8.697,1.232-9.92,5.488
	c-1.225,4.254,1.232,8.697,5.488,9.92l29.641,8.529c0.73,0.211,1.475,0.312,2.216,0.312c1.953,0,3.868-0.714,5.358-2.053
	c2.055-1.847,3.015-4.624,2.539-7.347l-5.322-30.382c-0.763-4.361-4.915-7.278-9.28-6.514c-4.361,0.764-7.277,4.919-6.514,9.28
	l0.575,3.28c-16.404-13.374-36.93-20.78-58.651-20.78c-28.827,0-55.555,13.04-73.328,35.777
	C179.946,227.39,180.563,232.429,184.051,235.156z"/>
<path d="M149.934,289.297c3.498,2.714,8.534,2.078,11.247-1.422l1.899-2.45c0.91,19.576,8.03,38.556,20.291,53.857
	c12.951,16.161,31.122,27.668,51.168,32.404c0.62,0.146,1.239,0.216,1.849,0.216c3.632,0,6.924-2.486,7.795-6.175
	c1.018-4.309-1.65-8.627-5.959-9.645c-32.613-7.704-56.021-35.162-58.911-68.045l0.869,1.766c1.395,2.834,4.239,4.478,7.198,4.477
	c1.189,0,2.396-0.266,3.535-0.826c3.972-1.956,5.606-6.761,3.651-10.734l-13.625-27.673c-1.221-2.48-3.633-4.156-6.383-4.435
	c-2.75-0.275-5.45,0.879-7.143,3.063l-18.903,24.374C145.799,281.548,146.436,286.584,149.934,289.297z"/>
<path d="M496.939,134.313c-0.772-0.59-1.594-1.08-2.435-1.519l-7.873-59.048C481.025,31.704,444.814,0,402.399,0H109.602
	C67.187,0,30.976,31.704,25.371,73.746l-7.873,59.048c-0.841,0.439-1.662,0.93-2.435,1.519c-4.138,3.161-6.511,7.96-6.511,13.167
	v16.478c0,7.451,5.021,14.024,12.209,15.984l81.854,22.324v261.576c-5.093,2.829-8.551,8.26-8.551,14.489v17.102
	c0,9.136,7.432,16.568,16.568,16.568H401.37c9.136,0,16.568-7.432,16.568-16.568v-17.102c0-6.228-3.458-11.659-8.551-14.489V202.266
	l81.854-22.324c7.188-1.96,12.209-8.534,12.209-15.984V147.48C503.449,142.273,501.076,137.474,496.939,134.313z M256.001,92.994
	c44.152,0,80.534-33.851,84.588-76.96h18.251c-4.105,53.144-48.66,95.132-102.838,95.132s-98.734-41.987-102.838-95.132h18.251
	C175.467,59.143,211.849,92.994,256.001,92.994z M187.538,16.033h136.925c-3.987,34.251-33.159,60.927-68.463,60.927
	S191.525,50.284,187.538,16.033z M109.602,16.033h27.493c4.138,61.993,55.883,111.165,118.906,111.165
	S370.769,78.026,374.906,16.033h27.493c34.412,0,63.79,25.722,68.339,59.832l7.571,56.78l-68.922,18.797V110.63
	c0-4.427-3.589-8.017-8.017-8.017c-4.427,0-8.017,3.589-8.017,8.017v351.132H118.648V110.63c0-4.427-3.589-8.017-8.017-8.017
	s-8.017,3.589-8.017,8.017v40.811l-68.922-18.796l7.571-56.78C45.811,41.755,75.19,16.033,109.602,16.033z M24.979,164.473
	c-0.233-0.063-0.394-0.275-0.394-0.515V147.48c0-0.079,0-0.264,0.21-0.424c0.119-0.09,0.227-0.114,0.313-0.114
	c0.066,0,0.119,0.015,0.153,0.024l0,0l77.354,21.097v17.585L24.979,164.473z M401.905,495.432c0,0.295-0.239,0.534-0.534,0.534
	H110.631c-0.295,0-0.534-0.239-0.534-0.534V478.33c0-0.295,0.239-0.534,0.534-0.534H401.37c0.295,0,0.534,0.239,0.534,0.534V495.432
	z M487.416,163.958c0,0.241-0.161,0.452-0.393,0.515l-77.636,21.174v-17.585l77.354-21.097c0.077-0.02,0.257-0.068,0.466,0.091
	c0.21,0.16,0.21,0.345,0.21,0.424V163.958z"/>
</svg>