<?xml version="1.0" encoding="utf-8"?><!-- Uploaded to: SVG Repo, www.svgrepo.com, Generator: SVG Repo Mixer Tools -->
<svg width="800px" height="800px" viewBox="0 0 70 70" xmlns="http://www.w3.org/2000/svg"><title>Fashion</title><path d="M70,13.89v12.5a0.89,0.89,0,0,1-.89.89H59.33V61.21A1.78,1.78,0,0,1,57.56,63H18.45a1.78,1.78,0,0,1-1.78-1.79V27.28H6.89A0.89,0.89,0,0,1,6,26.39V13.89A0.89,0.89,0,0,1,6.89,13h19.6a0.9,0.9,0,0,1,.88.85,10.66,10.66,0,0,0,21.26,0A0.9,0.9,0,0,1,49.51,13h19.6A0.89,0.89,0,0,1,70,13.89Z" fill="#cab1cc"/><path d="M55.33,27.28h9.78A0.89,0.89,0,0,0,66,26.39V13.89A0.89,0.89,0,0,0,65.11,13H45.51a0.9,0.9,0,0,0-.88.85,10.66,10.66,0,0,1-21.26,0A0.9,0.9,0,0,0,22.49,13H2.89a0.89,0.89,0,0,0-.89.89v12.5a0.89,0.89,0,0,0,.89.89h9.78V61.21A1.78,1.78,0,0,0,14.45,63H53.56a1.78,1.78,0,0,0,1.77-1.79V27.28Z" fill="none" stroke="#752323" stroke-linecap="round" stroke-miterlimit="10" stroke-width="2"/></svg>